<svg xmlns="http://www.w3.org/2000/svg" viewBox="0 0 1000 1000">
    <path fill="#FFA303" d="M990 911.3c0 43.5-35.2 78.7-78.7 78.7s-78.7-35.2-78.7-78.7c0-410.2-333.7-743.9-743.9-743.9-43.4 0-78.7-35.2-78.7-78.7S45.3 10 88.7 10C585.8 10 990 414.3 990 911.3zm-901.3-533C45.3 378.3 10 413.5 10 457s35.2 78.7 78.7 78.7c207.1 0 375.6 168.5 375.6 375.6 0 43.5 35.2 78.7 78.7 78.7s78.7-35.2 78.7-78.7c.1-293.9-239.1-533-533-533zm62.5 352.9c-65 0-117.5 52.7-117.5 117.6 0 64.9 52.6 117.5 117.5 117.5s117.6-52.6 117.6-117.5c.1-64.9-52.7-117.6-117.6-117.6z"/>
</svg>